<svg width="508" height="508" viewBox="0 0 508 508" fill="none" xmlns="http://www.w3.org/2000/svg">
<g filter="url(#filter0_d_4_28)">
<path d="M423 234C423 273.099 409.443 310.989 384.639 341.213C359.835 371.437 325.318 392.125 286.97 399.753C248.623 407.381 208.816 401.476 174.334 383.045C139.852 364.614 112.827 334.797 97.8644 298.674C82.9018 262.551 80.9273 222.358 92.2771 184.942C103.627 147.527 127.599 115.204 160.109 93.4819C192.618 71.7596 231.654 61.9817 270.565 65.814C309.476 69.6464 345.854 86.852 373.501 114.499" stroke="url(#paint0_linear_4_28)" stroke-width="17" stroke-linecap="round" shape-rendering="crispEdges"/>
</g>
<defs>
<filter id="filter0_d_4_28" x="0.5" y="0.499985" width="507" height="507.001" filterUnits="userSpaceOnUse" color-interpolation-filters="sRGB">
<feFlood flood-opacity="0" result="BackgroundImageFix"/>
<feColorMatrix in="SourceAlpha" type="matrix" values="0 0 0 0 0 0 0 0 0 0 0 0 0 0 0 0 0 0 127 0" result="hardAlpha"/>
<feOffset dy="20"/>
<feGaussianBlur stdDeviation="38"/>
<feComposite in2="hardAlpha" operator="out"/>
<feColorMatrix type="matrix" values="0 0 0 0 0 0 0 0 0 1 0 0 0 0 0.7 0 0 0 0.1 0"/>
<feBlend mode="normal" in2="BackgroundImageFix" result="effect1_dropShadow_4_28"/>
<feBlend mode="normal" in="SourceGraphic" in2="effect1_dropShadow_4_28" result="shape"/>
</filter>
<linearGradient id="paint0_linear_4_28" x1="382" y1="113" x2="136" y2="338.5" gradientUnits="userSpaceOnUse">
<stop stop-color="#01EB7B" stop-opacity="0"/>
<stop offset="0.335732" stop-color="#01EB7B"/>
</linearGradient>
</defs>
</svg>
