<svg width="66" height="32" viewBox="0 0 66 32" fill="none" xmlns="http://www.w3.org/2000/svg">
<path fill-rule="evenodd" clip-rule="evenodd" d="M10.3417 3.35609C11.8236 3.99414 12.4243 5.54588 11.6833 6.82199C10.9424 8.0981 9.14034 8.61535 7.65841 7.9773L1.65841 5.39396C0.17647 4.75591 -0.424202 3.20417 0.316765 1.92806C1.05773 0.651945 2.85975 0.134698 4.34169 0.772754L10.3417 3.35609ZM54.3167 6.82199C53.5758 5.54588 54.1765 3.99414 55.6584 3.35609L61.6584 0.772754C63.1403 0.134698 64.9423 0.651945 65.6833 1.92806C66.4243 3.20417 65.8236 4.75591 64.3417 5.39396L58.3417 7.9773C56.8597 8.61535 55.0577 8.0981 54.3167 6.82199ZM20.3334 3.08333C19.1008 3.08333 18.2214 3.62253 17.7286 4.05137C17.2453 4.47187 16.9257 4.95465 16.7114 5.34378C16.2763 6.1337 15.9671 7.1127 15.7369 8.12069C15.2668 10.18 15 12.9403 15 16C15 19.0597 15.2668 21.82 15.7369 23.8793C15.9671 24.8873 16.2763 25.8663 16.7114 26.6562C16.9257 27.0453 17.2453 27.5281 17.7286 27.9486C18.2214 28.3775 19.1007 28.9167 20.3334 28.9167C21.7348 28.9167 24.4961 28.3039 26.9244 26.3968C29.5018 24.3726 31.5 21.0633 31.5 16C31.5 10.9367 29.5018 7.62739 26.9244 5.60319C24.4961 3.69606 21.7348 3.08333 20.3334 3.08333ZM21 16C21 13.1549 21.2518 10.7485 21.6242 9.1174C21.6578 8.97027 21.6915 8.83364 21.7248 8.70715C22.084 8.87657 22.4822 9.10725 22.8812 9.42062C24.0631 10.3488 25.5 12.2062 25.5 16C25.5 19.7938 24.0631 21.6512 22.8812 22.5794C22.4822 22.8927 22.084 23.1234 21.7248 23.2928C21.6915 23.1664 21.6578 23.0297 21.6242 22.8826C21.2518 21.2514 21 18.8451 21 16ZM22.165 7.5039C22.1651 7.50403 22.163 7.50732 22.1586 7.51339C22.1628 7.5068 22.165 7.50377 22.165 7.5039ZM22.165 24.4961C22.165 24.4962 22.1628 24.4932 22.1586 24.4866C22.163 24.4927 22.1651 24.496 22.165 24.4961ZM45.6667 3.08333C46.8993 3.08333 47.7787 3.62253 48.2715 4.05137C48.7548 4.47187 49.0744 4.95465 49.2887 5.34378C49.7238 6.1337 50.033 7.1127 50.2631 8.12069C50.7333 10.18 51 12.9403 51 16C51 19.0597 50.7333 21.82 50.2631 23.8793C50.033 24.8873 49.7238 25.8663 49.2887 26.6562C49.0744 27.0453 48.7548 27.5281 48.2715 27.9486C47.7787 28.3775 46.8993 28.9167 45.6667 28.9167C44.2653 28.9167 41.504 28.3039 39.0757 26.3968C36.4983 24.3726 34.5 21.0633 34.5 16C34.5 10.9367 36.4983 7.62739 39.0757 5.60319C41.504 3.69606 44.2653 3.08333 45.6667 3.08333ZM45 16C45 13.1549 44.7482 10.7485 44.3758 9.1174C44.3422 8.97027 44.3086 8.83364 44.2753 8.70715C43.9161 8.87657 43.5179 9.10725 43.1188 9.42062C41.937 10.3488 40.5 12.2062 40.5 16C40.5 19.7938 41.937 21.6512 43.1188 22.5794C43.5179 22.8927 43.9161 23.1234 44.2753 23.2928C44.3086 23.1664 44.3422 23.0297 44.3758 22.8826C44.7482 21.2514 45 18.8451 45 16ZM43.835 7.5039C43.835 7.50403 43.8371 7.50732 43.8415 7.51339C43.8373 7.5068 43.8351 7.50377 43.835 7.5039ZM43.835 24.4961C43.8351 24.4962 43.8373 24.4932 43.8415 24.4866C43.8371 24.4927 43.835 24.496 43.835 24.4961ZM54 16C54 14.5733 55.3432 13.4167 57 13.4167H63C64.6569 13.4167 66 14.5733 66 16C66 17.4267 64.6569 18.5833 63 18.5833H57C55.3432 18.5833 54 17.4267 54 16ZM9.00004 13.4167C10.6569 13.4167 12 14.5733 12 16C12 17.4267 10.6569 18.5833 9.00004 18.5833H3.00004C1.34318 18.5833 3.87263e-05 17.4267 3.87263e-05 16C3.87263e-05 14.5733 1.34318 13.4167 3.00004 13.4167H9.00004ZM54.3167 25.178C53.5758 26.4541 54.1765 28.0059 55.6584 28.6439L61.6584 31.2272C63.1403 31.8653 64.9423 31.3481 65.6833 30.0719C66.4243 28.7958 65.8236 27.2441 64.3417 26.606L58.3417 24.0227C56.8597 23.3847 55.0577 23.9019 54.3167 25.178ZM10.3417 28.6439C11.8236 28.0059 12.4243 26.4541 11.6833 25.178C10.9424 23.9019 9.14034 23.3847 7.65841 24.0227L1.65841 26.606C0.17647 27.2441 -0.424202 28.7958 0.316765 30.0719C1.05773 31.3481 2.85975 31.8653 4.34169 31.2272L10.3417 28.6439Z" fill="#E9ED26"/>
</svg>
