<svg width="52" height="48" viewBox="0 0 52 48" fill="none" xmlns="http://www.w3.org/2000/svg">
<path fill-rule="evenodd" clip-rule="evenodd" d="M20.8 1.57645C20.8 0.858477 21.382 0.276451 22.1 0.276451H29.9C30.618 0.276451 31.2 0.858478 31.2 1.57645V7.79525C36.5266 9.88767 40.3 15.1 40.3 21.1988C40.3 29.1429 33.8977 35.5829 26 35.5829C18.1023 35.5829 11.7 29.1429 11.7 21.1988C11.7 15.1 15.4734 9.88767 20.8 7.79525V1.57645ZM26 30.3523C31.0258 30.3523 35.1 26.2541 35.1 21.1988C35.1 16.1434 31.0258 12.0453 26 12.0453C20.9742 12.0453 16.9 16.1434 16.9 21.1988C16.9 26.2541 20.9742 30.3523 26 30.3523ZM24.7 39.5059C23.982 39.5059 23.4 40.0879 23.4 40.8059V46.0518C23.4 46.7697 23.982 47.3518 24.7 47.3518H27.3C28.018 47.3518 28.6 46.7697 28.6 46.0518V40.8059C28.6 40.0879 28.018 39.5059 27.3 39.5059H24.7ZM37.92 36.888C37.4139 36.3788 37.4138 35.5533 37.92 35.0441L39.7639 33.1894C40.2701 32.6802 41.0908 32.6802 41.597 33.1894L45.2794 36.8934C45.7855 37.4026 45.7855 38.2281 45.2794 38.7373L43.4355 40.592C42.9293 41.1012 42.1086 41.1012 41.6024 40.592L37.92 36.888ZM12.2362 33.1893C11.73 32.6801 10.9093 32.6801 10.4031 33.1893L6.72072 36.8933C6.21453 37.4025 6.21453 38.228 6.72072 38.7372L8.5646 40.5919C9.07079 41.1011 9.89149 41.1011 10.3977 40.5919L14.08 36.8879C14.5862 36.3787 14.5862 35.5532 14.08 35.044L12.2362 33.1893ZM37.92 5.51032C37.4139 6.01948 37.4138 6.84501 37.92 7.35418L39.7639 9.2089C40.2701 9.71807 41.0908 9.71807 41.597 9.2089L45.2794 5.50489C45.7855 4.99572 45.7855 4.17019 45.2794 3.66103L43.4355 1.8063C42.9293 1.29713 42.1086 1.29713 41.6024 1.8063L37.92 5.51032ZM12.2362 9.20897C11.73 9.71814 10.9093 9.71813 10.4031 9.20897L6.72072 5.50495C6.21453 4.99578 6.21453 4.17026 6.72072 3.66109L8.5646 1.80637C9.07079 1.2972 9.89149 1.2972 10.3977 1.80637L14.08 5.51038C14.5862 6.01955 14.5862 6.84508 14.08 7.35424L12.2362 9.20897ZM44.2 19.8835C44.2 19.1655 44.782 18.5835 45.5 18.5835H50.7C51.418 18.5835 52 19.1655 52 19.8835V22.5141C52 23.2321 51.418 23.8141 50.7 23.8141H45.5C44.782 23.8141 44.2 23.2321 44.2 22.5141V19.8835ZM1.3 18.5835C0.58203 18.5835 0 19.1655 0 19.8835V22.5141C0 23.2321 0.582029 23.8141 1.3 23.8141H6.5C7.21797 23.8141 7.8 23.2321 7.8 22.5141V19.8835C7.8 19.1655 7.21797 18.5835 6.5 18.5835H1.3Z" fill="#32D74B"/>
</svg>
