<svg width="100" height="100" viewBox="0 0 100 100" fill="none" xmlns="http://www.w3.org/2000/svg">
<path d="M49.8125 7.9375C49.7266 7.95313 49.6406 7.97656 49.5625 8C48.6328 8.21094 47.9766 9.04688 48 10V22C47.9922 22.7188 48.3672 23.3906 48.9922 23.7578C49.6172 24.1172 50.3828 24.1172 51.0078 23.7578C51.6328 23.3906 52.0078 22.7188 52 22V10C52.0234 9.42188 51.7891 8.86719 51.375 8.47656C50.9531 8.07813 50.3828 7.88281 49.8125 7.9375ZM21.3125 19.6875C20.5625 19.8203 19.9609 20.3672 19.75 21.0938C19.539 21.8281 19.7578 22.6094 20.3125 23.125L28.8125 31.625C29.2969 32.2188 30.0703 32.4922 30.8203 32.3203C31.5625 32.1484 32.1484 31.5625 32.3203 30.8203C32.4922 30.0703 32.2187 29.2969 31.625 28.8125L23.125 20.3125C22.7109 19.8672 22.1094 19.6406 21.5 19.6875C21.4375 19.6875 21.375 19.6875 21.3125 19.6875ZM78.0625 19.6875C77.6094 19.75 77.1875 19.9766 76.875 20.3125L68.375 28.8125C67.7812 29.2969 67.5078 30.0703 67.6797 30.8203C67.8516 31.5625 68.4375 32.1484 69.1797 32.3203C69.9297 32.4922 70.7031 32.2188 71.1875 31.625L79.6875 23.125C80.3125 22.5313 80.4922 21.6016 80.125 20.8203C79.75 20.0313 78.9219 19.5781 78.0625 19.6875ZM50 30C38.9687 30 30 38.9688 30 50C30 61.0312 38.9687 70 50 70C61.0312 70 70 61.0312 70 50C70 38.9688 61.0312 30 50 30ZM9.43749 48C8.33593 48.1562 7.56249 49.1797 7.71874 50.2812C7.87499 51.3828 8.89843 52.1562 9.99999 52H22C22.7187 52.0078 23.3906 51.6328 23.7578 51.0078C24.1172 50.3828 24.1172 49.6172 23.7578 48.9922C23.3906 48.3672 22.7187 47.9922 22 48H9.99999C9.93749 48 9.87499 48 9.81249 48C9.74999 48 9.68749 48 9.62499 48C9.56249 48 9.49999 48 9.43749 48ZM77.4375 48C76.3359 48.1562 75.5625 49.1797 75.7187 50.2812C75.875 51.3828 76.8984 52.1562 78 52H90C90.7187 52.0078 91.3906 51.6328 91.7578 51.0078C92.1172 50.3828 92.1172 49.6172 91.7578 48.9922C91.3906 48.3672 90.7187 47.9922 90 48H78C77.9375 48 77.875 48 77.8125 48C77.75 48 77.6875 48 77.625 48C77.5625 48 77.5 48 77.4375 48ZM30 67.75C29.5469 67.8125 29.125 68.0391 28.8125 68.375L20.3125 76.875C19.7187 77.3594 19.4453 78.1328 19.6172 78.8828C19.789 79.625 20.375 80.2109 21.1172 80.3828C21.8672 80.5547 22.6406 80.2812 23.125 79.6875L31.625 71.1875C32.2187 70.6172 32.3984 69.7344 32.0781 68.9766C31.7656 68.2188 31.0078 67.7344 30.1875 67.75C30.125 67.75 30.0625 67.75 30 67.75ZM69.375 67.75C68.625 67.8828 68.0234 68.4297 67.8125 69.1562C67.6016 69.8906 67.8203 70.6719 68.375 71.1875L76.875 79.6875C77.3594 80.2812 78.1328 80.5547 78.8828 80.3828C79.625 80.2109 80.2109 79.625 80.3828 78.8828C80.5547 78.1328 80.2812 77.3594 79.6875 76.875L71.1875 68.375C70.8125 67.9766 70.2969 67.7578 69.75 67.75C69.6875 67.75 69.625 67.75 69.5625 67.75C69.5 67.75 69.4375 67.75 69.375 67.75ZM49.8125 75.9375C49.7266 75.9531 49.6406 75.9766 49.5625 76C48.6328 76.2109 47.9766 77.0469 48 78V90C47.9922 90.7188 48.3672 91.3906 48.9922 91.7578C49.6172 92.1172 50.3828 92.1172 51.0078 91.7578C51.6328 91.3906 52.0078 90.7188 52 90V78C52.0234 77.4219 51.7891 76.8672 51.375 76.4766C50.9531 76.0781 50.3828 75.8828 49.8125 75.9375Z" fill="white"/>
</svg>
