<svg width="300" height="239" viewBox="0 0 300 239" fill="none" xmlns="http://www.w3.org/2000/svg">
<path d="M30.199 233.886C28.5025 235.073 26.1598 234.663 25.0147 232.938C10.4352 210.967 1.89221 185.52 0.279781 159.157C-1.40903 131.546 4.5707 104.005 17.5579 79.5793C30.545 55.154 50.0337 34.7958 73.8692 20.7556C97.7048 6.71542 124.959 -0.459944 152.618 0.0228455C180.277 0.505635 207.264 8.62777 230.595 23.4913C253.926 38.3548 272.692 59.3807 284.819 84.2443C296.946 109.108 301.961 136.841 299.309 164.377C296.778 190.667 287.352 215.801 272.015 237.249C270.81 238.934 268.454 239.262 266.8 238.015V238.015C265.146 236.769 264.82 234.42 266.023 232.734C280.529 212.391 289.445 188.572 291.844 163.658C294.363 137.499 289.599 111.153 278.078 87.5321C266.558 63.9116 248.73 43.937 226.565 29.8167C204.401 15.6964 178.763 7.98035 152.487 7.5217C126.211 7.06305 100.32 13.8796 77.6758 27.2178C55.032 40.5561 36.5178 59.8963 24.18 83.1003C11.8422 106.304 6.16142 132.468 7.76579 158.699C9.29377 183.682 17.373 207.798 31.1604 228.635C32.3032 230.362 31.8955 232.698 30.199 233.886V233.886Z" fill="url(#paint0_linear_139_98)"/>
<defs>
<linearGradient id="paint0_linear_139_98" x1="150" y1="0" x2="150" y2="300" gradientUnits="userSpaceOnUse">
<stop stop-color="#ead700"/>
<stop offset="1" stop-color="#212121" stop-opacity="0"/>
</linearGradient>
</defs>
</svg>
